<svg width="512" height="512" viewBox="0 0 512 512" fill="none" xmlns="http://www.w3.org/2000/svg" xmlns:xlink="http://www.w3.org/1999/xlink" class="h-full w-full" id="iconWithBackground"><rect id="r4" width="512" height="512" x="0" y="0" rx="250" fill="#031d6d" stroke="#000000" stroke-width="0" stroke-opacity="100%" paint-order="stroke"></rect><defs><linearGradient id="linearGradient" gradientUnits="userSpaceOnUse" gradientTransform="rotate(0)" style="transform-origin: center center;"><stop stop-color="#8e2de2"></stop><stop offset="1" stop-color="#4a00e0"></stop></linearGradient><radialGradient id="glare" cx="0" cy="0" r="1" gradientUnits="userSpaceOnUse" gradientTransform="translate(256) rotate(90) scale(512)"><stop stop-color="white"></stop><stop offset="1" stop-color="white" stop-opacity="0"></stop></radialGradient><clipPath id="clip"><use xlink:href="#r4"></use></clipPath></defs><svg xmlns="http://www.w3.org/2000/svg" xmlns:xlink="http://www.w3.org/1999/xlink" aria-hidden="true" role="img" x="0" y="0" class="iconify iconify--openmoji" width="512" height="512" viewBox="0 0 72 72" style="color: rgb(0, 0, 0);"><path fill="#9b9b9a" d="m19.771 19.065l-.625.177a7.693 7.693 0 0 0-3.545 2.172l-.43.463a6.12 6.12 0 0 0-1.305 2.187l-1.287 3.779l-1.06 3.072a30.447 30.447 0 0 0-1.636 8.52l-.098 2.105c-.08 1.735.175 3.469.753 5.106l.072.202a8.988 8.988 0 0 0 3.39 4.42l.612.419a5.233 5.233 0 0 0 4.173.775l1.059-.253a2.705 2.705 0 0 0 1.784-1.404a5.565 5.565 0 0 0 .497-3.616l-.217-1.087s-2.59-2.08-3.45 1.134c-.238.89-1.138 1.51-2.017 1.233c-.354-.111-.739-.34-1.135-.75c-2.896-3.009 1.344-6.123 1.344-6.123l.84-1.159a1.724 1.724 0 0 1 1.988-.607c1.226.445 3.18.961 4.774.497a.486.486 0 0 1 .624.468v.33c0 1.247.111 2.493.332 3.72l1.017 5.659l.191 1.43a3.744 3.744 0 0 1-.402 2.25l-.847 1.6a1.27 1.27 0 0 0-.035 1.116c.162.36.52.591.914.591h4.84c.83 0 1.59-.47 1.96-1.214c.165-.333.246-.697.233-1.069c-.07-1.989-.234-8.717.643-10.473c1.032-2.068 0 0 0 0l2.58 1.01c.908.357 1.89.485 2.86.375l5.153-.588l5.015-.948c3.292.467 5.298 1.772 5.39 4.323l.198 2.305a6.705 6.705 0 0 1-.711 3.63l-.526 1.029a1.198 1.198 0 0 1-.07.118c-.446.67-.532 1.516-.156 2.227l.048.092c.564.697 1.045.768 1.629.789c.725.025 2.172-.039 2.902-.113c.756-.077 2.345-.45 2.901-.968c.189-.175.486-.567.597-.838c.303-.737.412-1.234.435-2.031l-.523-13.037l.523-8.942l-1.158-3.841a2.941 2.941 0 0 0-.433-1.272a23.443 23.443 0 0 0-6.835-7.05l-.149-.1c-4.452-2.617-7.148-1.551-9.838-.884l-.823.204c-1.12.278-2.27.42-3.426.425a10.361 10.361 0 0 1-6.741-1.289l-.704-.41c-2.151-1.25-4.644-1.842-7.115-1.56a11.71 11.71 0 0 0-1.508.265l-.849.398l-1.193.508c-.464.198-.94.365-1.424.503Z"></path><path fill="#3f3f3f" d="M47.975 45.655L48.623 48a.99.99 0 0 1 .03.369l-.42 3.93l-.154.368l-2.275 2.749c-.038.096-.312.532-.263.754c.319 1.438 1.577 2.478 3.04 2.635c1.642.175 4.16.12 4.886.018c.844-.119 1.156-1.177.51-1.733a.99.99 0 0 1-.181-1.295l1.4-2.123a.99.99 0 0 0 .16-.619l-.296-3.962a.988.988 0 0 0-.073-.308l-.968-2.315a.99.99 0 0 0-.452-.494l-2.445-1.286a.99.99 0 0 0-.363-.109l-1.732-.172a.99.99 0 0 0-1.052 1.249Z"></path><g fill="none" stroke="#000" stroke-linecap="round" stroke-linejoin="round" stroke-width="2"><path d="M21.202 46.717c1.284 2.3.67 4.168-.307 5.095c-1.058 1.003-3.124 1.452-4.534 1.08c-12.645-3.333-3.947-25.157-3.947-25.157c.615-9.228 8.085-8.876 8.085-8.876s6.91-4.57 11.018.166c1.23 1.417 1.776 3.3 1.72 5.175c-.087 2.928 2.882 6.958-1.652 10.359c-1.75 1.312-.947 5.108-4.5 5.583c0 0-5.092.52-5.18-7.478"></path><path d="M25.315 40.546s-.311 2.452 1.095 12.47l-1.51 2.598c-.51.875.063 1.987 1.07 2.071c1.226.102 3.95.178 5.262.013c1.012-.126 1.826-1.03 1.703-2.041c-.855-7.046.621-11.03.621-11.03c4.661 3.573 11.223.196 14.915-.156c.738-.07 2.038.167 2.652.344c2.313.664 3.853 2.123 3.795 8.59l-1.554 2.563c-.49.906.157 2.037 1.165 2.252c1.1.235 4.16-.052 5.069-.252c1.73-.382 1.65-2.209 1.757-3.977c.228-3.77-.097-9.014-.305-11.744a13.31 13.31 0 0 1 .102-2.972c.37-2.5 3.19-12.548-8.172-19.209c-6.574-3.854-13.192 4.242-20.624-.55m-14.23 16.392s.176 10.81-13.007 11.16M64.134 29.81c1.05 2.414 1.768 6.245 1.203 12.3"></path><path d="m47.96 45.424l.4 4.851c.065.77-.128 1.54-.545 2.184l-.883 1.362c-.213.33-.373.825-.464 1.368c-.237 1.415.847 2.703 2.243 2.703h1.123"></path></g></svg></svg>